<?xml version="1.0" encoding="UTF-8" standalone="no"?>
<!-- Created with Inkscape (http://www.inkscape.org/) -->

<svg
   width="171.71495mm"
   height="56mm"
   viewBox="0 0 171.71495 56"
   version="1.1"
   id="svg1"
   sodipodi:docname="pbos_text.svg"
   inkscape:version="1.4 (e7c3feb100, 2024-10-09)"
   xmlns:inkscape="http://www.inkscape.org/namespaces/inkscape"
   xmlns:sodipodi="http://sodipodi.sourceforge.net/DTD/sodipodi-0.dtd"
   xmlns="http://www.w3.org/2000/svg"
   xmlns:svg="http://www.w3.org/2000/svg">
  <sodipodi:namedview
     id="namedview1"
     pagecolor="#ffffff"
     bordercolor="#000000"
     borderopacity="0.25"
     inkscape:showpageshadow="2"
     inkscape:pageopacity="0.0"
     inkscape:pagecheckerboard="0"
     inkscape:deskcolor="#d1d1d1"
     inkscape:document-units="mm"
     inkscape:zoom="0.62264446"
     inkscape:cx="395.08904"
     inkscape:cy="163.81741"
     inkscape:window-width="1470"
     inkscape:window-height="891"
     inkscape:window-x="0"
     inkscape:window-y="0"
     inkscape:window-maximized="1"
     inkscape:current-layer="layer1" />
  <defs
     id="defs1" />
  <g
     inkscape:label="图层 1"
     inkscape:groupmode="layer"
     id="layer1">
    <g
       id="g3">
      <rect
         style="fill:none;stroke:#2b333e;stroke-width:3.02366;stroke-linecap:round;stroke-linejoin:round;stroke-dasharray:none;stroke-opacity:1;paint-order:normal"
         id="rect1-2"
         width="32.976337"
         height="44.976341"
         x="17.511829"
         y="9.5118303" />
      <rect
         style="fill:none;stroke:#bbb5ac;stroke-width:3.02366;stroke-linecap:round;stroke-linejoin:round;stroke-dasharray:none;stroke-opacity:1;paint-order:normal"
         id="rect1"
         width="32.976337"
         height="44.976341"
         x="1.5118315"
         y="1.5118315" />
    </g>
    <path
       style="font-size:45.1556px;font-family:Raleway;-inkscape-font-specification:Raleway;fill:#2b333e;stroke-width:3.175;stroke-linecap:round;stroke-linejoin:round"
       d="m 168.59921,22.908807 q -1.35467,-1.535291 -3.61245,-2.483558 -2.25778,-0.948268 -5.14774,-0.948268 -4.24462,0 -6.18631,1.625602 -1.9417,1.580446 -1.9417,4.334937 0,1.44498 0.49672,2.393247 0.54186,0.903112 1.6256,1.580446 1.08373,0.677334 2.75449,1.174046 1.71591,0.496712 4.01885,0.993423 2.57387,0.541867 4.60587,1.219201 2.07716,0.677334 3.52214,1.715913 1.44498,0.993423 2.21262,2.438403 0.76765,1.444979 0.76765,3.612448 0,2.212624 -0.85796,3.838226 -0.85796,1.625602 -2.39325,2.709336 -1.53529,1.083734 -3.6576,1.625602 -2.12231,0.496711 -4.65103,0.496711 -7.45067,0 -12.86934,-4.651027 l 1.58044,-2.573869 q 0.85796,0.903112 2.032,1.715913 1.2192,0.812801 2.66418,1.444979 1.49014,0.587023 3.1609,0.948268 1.67075,0.316089 3.52213,0.316089 3.83823,0 5.96054,-1.354668 2.16747,-1.399824 2.16747,-4.199471 0,-1.490135 -0.63218,-2.483558 -0.58702,-1.038579 -1.80622,-1.761068 -1.2192,-0.767646 -3.02543,-1.309513 -1.80622,-0.541867 -4.19947,-1.083734 -2.52871,-0.587023 -4.42525,-1.219202 -1.89653,-0.632178 -3.20604,-1.580446 -1.30952,-0.948267 -1.98685,-2.25778 -0.63218,-1.354668 -0.63218,-3.296359 0,-2.212624 0.8128,-3.928537 0.85796,-1.761068 2.39325,-2.889958 1.53529,-1.174046 3.61245,-1.761069 2.07715,-0.632178 4.60587,-0.632178 3.20605,0 5.6896,0.993423 2.52872,0.948268 4.56072,2.709336 z"
       id="path18" />
    <path
       id="path17"
       style="font-size:45.1556px;font-family:Raleway;-inkscape-font-specification:Raleway;fill:#2b333e;stroke-width:3.175;stroke-linecap:round;stroke-linejoin:round"
       d="M 128.90738 16.677535 C 126.77001 16.677535 124.78334 17.128862 122.94702 18.031974 C 121.11068 18.904982 119.5149 20.094012 118.16023 21.599198 C 116.80556 23.104385 115.73692 24.83542 114.95422 26.792163 C 114.20163 28.748906 113.82561 30.796025 113.82561 32.93339 C 113.82561 34.980444 114.18677 36.982483 114.90927 38.939225 C 115.63175 40.895968 116.65531 42.641858 117.97988 44.177148 C 119.30445 45.682335 120.88486 46.90159 122.72119 47.834806 C 124.58762 48.737918 126.63474 49.189246 128.86242 49.189246 C 130.99979 49.189246 132.98645 48.752773 134.82278 47.879765 C 136.6591 46.976653 138.23952 45.787623 139.56409 44.312541 C 140.91876 42.807354 141.97255 41.076319 142.72514 39.119576 C 143.50783 37.162833 143.89923 35.115713 143.89923 32.978349 C 143.89923 30.961398 143.53806 28.989586 142.81557 27.062948 C 142.09309 25.106205 141.06953 23.360315 139.74496 21.825024 C 138.4505 20.289734 136.87008 19.055624 135.00365 18.122408 C 133.16732 17.159089 131.13505 16.677535 128.90738 16.677535 z M 128.86242 19.567281 C 130.60843 19.567281 132.20371 19.943818 133.64869 20.696411 C 135.09367 21.418901 136.34315 22.396863 137.39678 23.631116 C 138.45041 24.865369 139.2629 26.295692 139.83488 27.921293 C 140.43695 29.516791 140.73818 31.187374 140.73818 32.93339 C 140.73818 34.589096 140.45232 36.214597 139.88035 37.810095 C 139.33848 39.405593 138.55571 40.835399 137.53217 42.099756 C 136.50865 43.364113 135.25916 44.387673 133.78408 45.170369 C 132.309 45.953067 130.66865 46.344458 128.86242 46.344458 C 127.0863 46.344458 125.47565 45.983293 124.03067 45.260803 C 122.58569 44.50821 121.33621 43.514876 120.28258 42.280623 C 119.22895 41.016266 118.41646 39.58646 117.84449 37.990963 C 117.27252 36.365361 116.98614 34.679407 116.98614 32.93339 C 116.98614 31.277685 117.25714 29.652183 117.79901 28.056685 C 118.37098 26.461187 119.16914 25.030865 120.19266 23.766508 C 121.21619 22.502151 122.46515 21.493963 123.94024 20.74137 C 125.41532 19.958672 127.05619 19.567281 128.86242 19.567281 z " />
    <path
       id="path15"
       style="font-size:45.1556px;font-family:Raleway;-inkscape-font-specification:Raleway;fill:#bbb5ac;stroke-width:3.175;stroke-linecap:round;stroke-linejoin:round;fill-opacity:1"
       d="M 87.45461 16.000057 L 87.45461 48.96342 L 90.208964 48.96342 L 90.208964 44.402974 C 91.081973 45.878057 92.286373 47.081941 93.821663 48.015157 C 95.387058 48.948373 97.102721 49.415072 98.969153 49.415072 C 100.53454 49.415072 101.99457 49.098988 103.34925 48.466809 C 104.73401 47.804527 105.92304 46.931582 106.91647 45.847847 C 107.90989 44.734009 108.69268 43.439447 109.26465 41.964364 C 109.83662 40.489281 110.12248 38.924232 110.12248 37.268526 C 110.12248 35.733236 109.86685 34.242977 109.35508 32.797998 C 108.87342 31.322915 108.16594 30.013498 107.23273 28.869556 C 106.32962 27.69551 105.2159 26.762113 103.89133 26.069727 C 102.59687 25.377341 101.12147 25.03103 99.465763 25.03103 C 97.509021 25.03103 95.793357 25.527955 94.318274 26.521379 C 92.843191 27.484698 91.578854 28.763889 90.525224 30.359387 L 90.525224 16.000057 L 87.45461 16.000057 z M 98.607935 27.740426 C 99.842189 27.740426 100.97128 28.011429 101.99481 28.553296 C 103.04843 29.065059 103.93623 29.772535 104.65873 30.675647 C 105.41132 31.548656 105.98356 32.556844 106.3749 33.700785 C 106.79636 34.844727 107.00691 36.034273 107.00691 37.268526 C 107.00691 38.472676 106.78098 39.646333 106.32943 40.790275 C 105.90797 41.904113 105.30604 42.912818 104.52334 43.81593 C 103.77074 44.688939 102.85272 45.396415 101.76898 45.938281 C 100.71535 46.450045 99.541174 46.705676 98.246716 46.705676 C 97.46402 46.705676 96.636156 46.555062 95.763147 46.254024 C 94.920242 45.952987 94.122605 45.546741 93.370011 45.034977 C 92.647522 44.523214 92.015354 43.921272 91.473486 43.228886 C 90.961723 42.506397 90.645638 41.738468 90.525224 40.925667 L 90.525224 33.610868 C 90.886468 32.828172 91.337796 32.090469 91.879663 31.398083 C 92.42153 30.675593 93.038844 30.043426 93.73123 29.501558 C 94.423616 28.959692 95.176172 28.538073 95.988973 28.237036 C 96.801774 27.905895 97.674719 27.740426 98.607935 27.740426 z " />
    <path
       id="path13"
       style="font-size:45.1556px;font-family:Raleway;-inkscape-font-specification:Raleway;fill:#bbb5ac;stroke-width:3.175;stroke-linecap:round;stroke-linejoin:round;fill-opacity:1"
       d="M 59.999955 16.903361 L 59.999955 48.96342 L 63.161003 48.96342 L 63.161003 37.132617 L 73.546932 37.132617 C 74.931703 37.132617 76.180669 36.846759 77.294507 36.274788 C 78.438449 35.702817 79.416927 34.95026 80.229728 34.017045 C 81.042529 33.083829 81.674697 32.015189 82.126253 30.811039 C 82.577809 29.576786 82.803731 28.297595 82.803731 26.973031 C 82.803731 25.738777 82.562955 24.519522 82.081295 23.315373 C 81.599635 22.111223 80.937241 21.042583 80.094336 20.109367 C 79.251431 19.146048 78.242727 18.378119 77.068681 17.806148 C 75.924739 17.204074 74.660403 16.903361 73.275631 16.903361 L 59.999955 16.903361 z M 63.161003 19.702673 L 73.140238 19.702673 C 74.013247 19.702673 74.841111 19.898369 75.623808 20.289718 C 76.436608 20.650962 77.129229 21.162742 77.7012 21.825024 C 78.303275 22.487306 78.769457 23.270089 79.100598 24.173201 C 79.461843 25.04621 79.642684 25.979607 79.642684 26.973031 C 79.642684 27.93635 79.492069 28.869231 79.191032 29.772343 C 78.889995 30.645352 78.468894 31.428135 77.927026 32.12052 C 77.385159 32.782803 76.722765 33.324809 75.940068 33.746261 C 75.187474 34.137609 74.344238 34.333305 73.411023 34.333305 L 63.161003 34.333305 L 63.161003 19.702673 z " />
  </g>
</svg>
