<?xml version="1.0" encoding="UTF-8" standalone="no"?>
<!-- Created with Inkscape (http://www.inkscape.org/) -->

<svg
   width="171.71495mm"
   height="56mm"
   viewBox="0 0 171.71495 56"
   version="1.1"
   id="svg1"
   sodipodi:docname="pbos_text_logo.svg"
   inkscape:version="1.4 (e7c3feb100, 2024-10-09)"
   xmlns:inkscape="http://www.inkscape.org/namespaces/inkscape"
   xmlns:sodipodi="http://sodipodi.sourceforge.net/DTD/sodipodi-0.dtd"
   xmlns="http://www.w3.org/2000/svg"
   xmlns:svg="http://www.w3.org/2000/svg">
  <sodipodi:namedview
     id="namedview1"
     pagecolor="#ffffff"
     bordercolor="#000000"
     borderopacity="0.25"
     inkscape:showpageshadow="2"
     inkscape:pageopacity="0.0"
     inkscape:pagecheckerboard="0"
     inkscape:deskcolor="#d1d1d1"
     inkscape:document-units="mm"
     inkscape:zoom="0.35323411"
     inkscape:cx="-73.605577"
     inkscape:cy="288.76034"
     inkscape:window-width="1470"
     inkscape:window-height="891"
     inkscape:window-x="0"
     inkscape:window-y="0"
     inkscape:window-maximized="1"
     inkscape:current-layer="layer1" />
  <defs
     id="defs1" />
  <g
     inkscape:label="图层 1"
     inkscape:groupmode="layer"
     id="layer1">
    <g
       id="g1">
      <g
         id="g2">
        <rect
           style="fill:none;stroke:#93b5cf;stroke-width:3.02366;stroke-linecap:round;stroke-linejoin:round;stroke-dasharray:none;stroke-opacity:1;paint-order:normal"
           id="rect1-2"
           width="32.976337"
           height="44.976341"
           x="17.511829"
           y="9.5118303" />
        <rect
           style="fill:none;stroke:#22a2c3;stroke-width:3.02366;stroke-linecap:round;stroke-linejoin:round;stroke-dasharray:none;stroke-opacity:1;paint-order:normal"
           id="rect1-5"
           width="32.976337"
           height="44.976341"
           x="9.5118303"
           y="5.5118299" />
        <rect
           style="fill:none;stroke:#ea8958;stroke-width:3.02366;stroke-linecap:round;stroke-linejoin:round;stroke-dasharray:none;stroke-opacity:1;paint-order:normal"
           id="rect1"
           width="32.976337"
           height="44.976341"
           x="1.5118315"
           y="1.5118315" />
      </g>
    </g>
    <g
       id="g6"
       transform="translate(0,-4.707507)">
      <path
         style="font-size:45.1556px;font-family:Oxanium;-inkscape-font-specification:Oxanium;fill:#93b5cf;stroke-width:3.175;stroke-linecap:round;stroke-linejoin:round"
         d="m 146.82483,47.834446 v -1.851379 h 13.90793 q 3.07058,0 3.07058,-3.070581 v -3.657604 q 0,-2.573869 -2.30294,-3.025425 l -9.70845,-1.986847 q -4.96712,-0.993423 -4.96712,-6.637873 v -2.438403 q 0,-6.908807 6.90881,-6.908807 h 10.92766 l 2.032,1.580446 v 1.85138 h -13.00481 q -3.07059,0 -3.07059,3.070581 v 3.070581 q 0,2.573869 2.30294,3.025425 l 9.70845,1.941691 q 4.96712,0.993423 4.96712,6.683029 v 3.025425 q 0,6.908807 -6.90881,6.908807 h -11.83076 z"
         id="path6" />
      <path
         id="path5"
         style="font-size:45.1556px;font-family:Oxanium;-inkscape-font-specification:Oxanium;fill:#93b5cf;stroke-width:3.175;stroke-linecap:round;stroke-linejoin:round"
         d="m 123.02763,18.257743 c -4.60587,0 -6.90862,2.302751 -6.90862,6.908622 v 17.33951 c 0,4.605872 2.30275,6.909139 6.90862,6.909139 h 10.5668 c 4.60587,0 6.90862,-2.303267 6.90862,-6.909139 v -17.33951 c 0,-4.605871 -2.30275,-6.908622 -6.90862,-6.908622 z m -0.045,3.431832 h 10.65672 c 2.04705,0 3.07061,1.023559 3.07061,3.070613 v 18.152381 c 0,2.047054 -1.02356,3.070613 -3.07061,3.070613 h -10.65672 c -2.04705,0 -3.07061,-1.023559 -3.07061,-3.070613 V 24.760188 c 0,-2.047054 1.02356,-3.070613 3.07061,-3.070613 z" />
      <path
         id="path3"
         style="font-size:45.1556px;font-family:Oxanium;-inkscape-font-specification:Oxanium;fill:#2177b8;fill-opacity:1;stroke-width:3.175;stroke-linecap:round;stroke-linejoin:round"
         d="m 89.838444,16 v 33.415014 h 12.643676 c 4.51556,0 6.77323,-2.257669 6.77323,-6.77323 v -9.934277 c 0,-4.51556 -2.25767,-6.773747 -6.77323,-6.773747 H 93.450627 V 16 Z m 3.612183,13.094808 h 9.031493 c 2.10726,0 3.16053,1.053786 3.16053,3.161047 V 43.09292 c 0,2.107261 -1.05327,3.161047 -3.16053,3.161047 h -9.031493 z" />
      <path
         id="path1"
         style="font-size:45.1556px;font-family:Oxanium;-inkscape-font-specification:Oxanium;fill:#ea8958;fill-opacity:1;stroke-width:3.175;stroke-linecap:round;stroke-linejoin:round"
         d="m 61.84222,18.257743 v 31.157271 h 3.79305 V 37.94543 h 10.972457 c 4.605871,0 6.909139,-2.302751 6.909139,-6.908622 v -5.870443 c 0,-4.605871 -2.303268,-6.908622 -6.909139,-6.908622 z m 3.79305,3.431832 h 11.017932 c 2.047054,0 3.070614,1.023559 3.070614,3.070613 v 6.682797 c 0,2.047054 -1.02356,3.070613 -3.070614,3.070613 H 65.63527 Z" />
    </g>
  </g>
</svg>
